<?xml version="1.0" encoding="utf-8"?>
<!-- Generator: Adobe Illustrator 25.4.1, SVG Export Plug-In . SVG Version: 6.00 Build 0)  -->
<svg version="1.1" id="Layer_1" xmlns="http://www.w3.org/2000/svg" xmlns:xlink="http://www.w3.org/1999/xlink" x="0px" y="0px"
	 viewBox="0 0 223.8 61.4" style="enable-background:new 0 0 223.8 61.4;" xml:space="preserve">
<style type="text/css">
	.st0{fill:#008FC3;}
	.st1{fill:#A1A5A7;}
	.st2{fill:#232F5D;}
	.st3{fill:#D1D3D5;}
	.st4{fill:#59BADD;}
	.st5{fill:#B9BCBE;}
	.st6{fill:#ADB1B3;}
	.st7{fill:#EDEEEE;}
	.st8{fill:#B8DDF0;}
</style>
<polygon class="st0" points="76.3,44.9 79.1,44.9 79.1,51.7 85.5,51.7 85.5,44.9 88.4,44.9 88.4,61.1 85.5,61.1 85.5,61.1 
	85.5,54.2 79.1,54.2 79.1,61.1 76.3,61.1 "/>
<g>
	<path class="st0" d="M90.7,58.2c-0.2-0.7-0.4-1.6-0.4-2.8c0-1.2,0.1-2.1,0.4-2.8c0.6-2,2.4-3.2,4.7-3.2c2.4,0,4.1,1.2,4.7,3.2
		c0.3,0.8,0.4,1.6,0.4,3.5c0,0.1-0.1,0.2-0.3,0.2h-7.1c-0.1,0-0.1,0.1-0.1,0.1c0,0.3,0.1,0.6,0.2,0.9c0.4,1.1,1.3,1.7,2.6,1.7
		c1.3,0,2.1-0.5,2.7-1.1c0.1-0.1,0.2-0.1,0.4,0l1.4,1.2c0.1,0.1,0.1,0.2,0,0.3c-1,1.1-2.6,2-4.7,2C93.1,61.4,91.4,60.2,90.7,58.2
		 M97.6,53.1c-0.3-0.9-1.2-1.5-2.2-1.5c-1.1,0-2,0.5-2.3,1.5c-0.1,0.3-0.1,0.6-0.1,1c0,0.1,0.1,0.1,0.1,0.1h4.5
		c0.1,0,0.1-0.1,0.1-0.1C97.8,53.7,97.7,53.4,97.6,53.1"/>
	<path class="st0" d="M109.2,61.1c-0.1,0-0.2-0.1-0.2-0.2v-0.8h0c-0.5,0.8-1.6,1.3-3.2,1.3c-2.1,0-3.9-1.1-3.9-3.5
		c0-2.5,1.8-3.6,4.6-3.6h2.3c0.1,0,0.1-0.1,0.1-0.1v-0.5c0-1.3-0.6-1.9-2.5-1.9c-1.3,0-2.1,0.4-2.6,0.8c-0.1,0.1-0.3,0.1-0.3,0
		l-0.9-1.6c-0.1-0.1,0-0.2,0-0.3c0.9-0.7,2.2-1.1,4.1-1.1c3.5,0,4.8,1.2,4.8,4v7.7H109.2z M108.9,57.3v-0.9c0-0.1-0.1-0.1-0.1-0.1
		h-1.9c-1.7,0-2.5,0.5-2.5,1.5c0,1,0.7,1.4,2,1.4C108,59.2,108.9,58.6,108.9,57.3"/>
	<path class="st0" d="M117,61.3c-2.2,0-3.1-1.1-3.1-3.3V44.9h2.7v12.9c0,0.8,0.3,1,1,1h0.5c0.1,0,0.2,0.1,0.2,0.2v2.1h0H117z"/>
	<path class="st0" d="M123.3,61.3c-2.3,0-3.2-1.1-3.2-3.4v-6.1c0-0.1-0.1-0.1-0.1-0.1h-0.8c-0.1,0-0.2-0.1-0.2-0.2v-1.6
		c0-0.1,0.1-0.2,0.2-0.2h0.8c0.1,0,0.1-0.1,0.1-0.1v-3.4h2.7v3.5h1.9v2.1h-1.9v6.1c0,0.8,0.3,1.1,1.1,1.1h0.6c0.1,0,0.2,0.1,0.2,0.2
		v2.1H123.3z"/>
	<path class="st0" d="M133.8,61.1L133.8,61.1l0-6.9c0-1.5-0.7-2.5-2.2-2.5c-1.4,0-2.2,1-2.2,2.5v6.9h-2.7V44.9h2.7v5.8h0
		c0.5-0.8,1.6-1.4,3.3-1.3c2.1,0.1,3.7,1.9,3.7,4v7.8H133.8z"/>
	<path class="st1" d="M137.6,59.3c-0.1-0.1-0.1-0.2,0-0.4l1.5-1.7c0.1-0.1,0.2-0.1,0.3,0c1,0.8,2.6,1.7,4.4,1.7c1.9,0,3-1,3-2.3
		c0-1.2-0.7-1.9-3-2.2l-0.9-0.1c-3.1-0.4-4.9-1.9-4.9-4.6c0-2.9,2.1-4.9,5.5-4.9c2,0,4,0.6,5.2,1.6c0.1,0.1,0.1,0.2,0,0.3l-1.1,1.8
		c-0.1,0.1-0.2,0.1-0.3,0.1c-1.3-0.9-2.5-1.3-3.9-1.3c-1.6,0-2.5,0.9-2.5,2.2c0,1.1,0.8,1.9,3,2.2l0.9,0.1c3.1,0.4,4.8,1.9,4.8,4.7
		c0,2.9-2.1,5-6.1,5C141.2,61.4,138.9,60.4,137.6,59.3"/>
	<path class="st1" d="M151.4,58.2c-0.2-0.7-0.4-1.6-0.4-2.8c0-1.2,0.1-2.1,0.4-2.8c0.7-2,2.4-3.2,4.7-3.2c1.7,0,3.1,0.7,4,1.8
		c0.1,0.1,0.1,0.2,0,0.3l-1.5,1.3c-0.1,0.1-0.2,0.1-0.3,0c-0.6-0.6-1.2-1-2.1-1c-1,0-1.8,0.5-2.1,1.5c-0.2,0.6-0.2,1.2-0.2,2.1
		c0,1.3,0.1,2.2,0.7,2.9c0.3,0.4,0.7,0.6,1.2,0.6c1.3,0.2,2-0.2,2.7-1c0.1-0.1,0.2-0.1,0.3,0l1.5,1.3c0.1,0.1,0.1,0.2,0,0.3
		c-0.9,1.1-2.3,1.8-4,1.8C153.9,61.4,152.1,60.3,151.4,58.2"/>
	<path class="st1" d="M162.1,47.5L162.1,47.5l0-2.5h2.7v2.5l0,0H162.1z M162.1,61.1L162.1,61.1l0-11.5h2.7v11.5H162.1z"/>
	<path class="st1" d="M167,58.2c-0.2-0.7-0.4-1.6-0.4-2.8c0-1.2,0.1-2.1,0.4-2.8c0.6-2,2.4-3.2,4.7-3.2c2.4,0,4.1,1.2,4.7,3.2
		c0.3,0.8,0.4,1.6,0.4,3.5c0,0.1-0.1,0.2-0.3,0.2h-7.1c-0.1,0-0.1,0.1-0.1,0.1c0,0.3,0.1,0.6,0.2,0.9c0.4,1.1,1.3,1.7,2.6,1.7
		c1.3,0,2.1-0.5,2.7-1.1c0.1-0.1,0.2-0.1,0.4,0l1.4,1.2c0.1,0.1,0.1,0.2,0,0.3c-1,1.1-2.6,2-4.7,2C169.4,61.4,167.7,60.2,167,58.2
		 M174,53.1c-0.3-0.9-1.2-1.5-2.2-1.5c-1.1,0-2,0.5-2.3,1.5c-0.1,0.3-0.1,0.6-0.1,1c0,0.1,0.1,0.1,0.1,0.1h4.5
		c0.1,0,0.1-0.1,0.1-0.1C174.1,53.7,174.1,53.4,174,53.1"/>
	<path class="st1" d="M185.7,61.1v-6.9c0-1.5-0.7-2.5-2.2-2.5c-1.4,0-2.2,1-2.2,2.5v6.9h-2.7V49.7h2.4c0.1,0,0.2,0.1,0.2,0.2v0.8h0
		c0.5-0.8,1.6-1.4,3.3-1.3c2.1,0.1,3.7,1.9,3.7,4v7.8H185.7z"/>
	<path class="st1" d="M190.5,58.2c-0.2-0.7-0.4-1.6-0.4-2.8c0-1.2,0.1-2.1,0.4-2.8c0.7-2,2.4-3.2,4.7-3.2c1.7,0,3.1,0.7,4,1.8
		c0.1,0.1,0.1,0.2,0,0.3l-1.5,1.3c-0.1,0.1-0.2,0.1-0.3,0c-0.6-0.6-1.2-1-2.1-1c-1,0-1.8,0.5-2.1,1.5c-0.2,0.6-0.2,1.2-0.2,2.1
		c0,1.3,0.1,2.2,0.7,2.9c0.3,0.4,0.7,0.6,1.2,0.6c1.3,0.2,2-0.2,2.7-1c0.1-0.1,0.2-0.1,0.3,0l1.5,1.3c0.1,0.1,0.1,0.2,0,0.3
		c-0.9,1.1-2.3,1.8-4,1.8C193,61.4,191.2,60.3,190.5,58.2"/>
	<path class="st1" d="M200.9,58.2c-0.2-0.7-0.4-1.6-0.4-2.8c0-1.2,0.1-2.1,0.4-2.8c0.6-2,2.4-3.2,4.7-3.2c2.4,0,4.1,1.2,4.7,3.2
		c0.3,0.8,0.4,1.6,0.4,3.5c0,0.1-0.1,0.2-0.3,0.2h-7.1c-0.1,0-0.1,0.1-0.1,0.1c0,0.3,0.1,0.6,0.2,0.9c0.4,1.1,1.3,1.7,2.6,1.7
		c1.3,0,2.1-0.5,2.7-1.1c0.1-0.1,0.2-0.1,0.4,0l1.4,1.2c0.1,0.1,0.1,0.2,0,0.3c-1,1.1-2.6,2-4.7,2C203.3,61.4,201.6,60.2,200.9,58.2
		 M207.9,53.1c-0.3-0.9-1.2-1.5-2.2-1.5c-1.1,0-2,0.5-2.3,1.5c-0.1,0.3-0.1,0.6-0.1,1c0,0.1,0.1,0.1,0.1,0.1h4.5
		c0.1,0,0.1-0.1,0.1-0.1C208,53.7,208,53.4,207.9,53.1"/>
	<path class="st2" d="M99.4,1.3c-0.3,0.4-0.5,0.9-0.5,1.6v21.5h-0.1c0,0-11.8-21-12.3-21.9C86,1.8,85.6,1.4,85,1
		c-0.6-0.3-1.2-0.5-2.4-0.5h-3.9c-0.9,0-1.5,0.3-1.9,0.8c-0.3,0.4-0.5,0.9-0.5,1.6v30.5c0,0.8,0.2,1.2,0.5,1.6
		c0.4,0.5,1,0.8,1.9,0.8h2.2c0.9,0,1.5-0.3,1.9-0.8c0.3-0.4,0.5-0.9,0.5-1.6v-22h0.1c0,0,12.2,21.6,12.7,22.4c0.7,1.1,1.8,2,3.5,2
		h3.8c0.9,0,1.5-0.3,1.9-0.8c0.3-0.4,0.5-0.9,0.5-1.6V5.8h49.5c0.5,0,0.9-0.1,1.2-0.4c0.3-0.3,0.4-0.7,0.4-1.2V2.2
		c0-0.6-0.1-0.9-0.4-1.2c-0.3-0.2-0.7-0.4-1.2-0.4h-54C100.4,0.5,99.8,0.9,99.4,1.3 M121,9.5c-8.2,0-12.8,6.4-12.8,13.2
		c0,7.2,4.9,13.6,12.9,13.6c4,0,7.8-1.5,10.1-4.1c1-1.1,1.8-2.7,1.8-3.7c0-0.3-0.1-0.6-0.3-0.8c-0.2-0.2-0.5-0.4-1-0.4h-3.8
		c-0.8,0-1.3,0.3-1.7,0.9c-1.1,1.6-2.7,2.5-5.1,2.5c-3.6,0-5.8-2.7-6-5.7h16.5c0.7,0,1.3-0.2,1.6-0.5c0.4-0.4,0.6-0.9,0.6-1.9
		c0-3.1-1-6.3-3-8.8C128.6,11.1,125.5,9.5,121,9.5 M146.4,9.5c-6.5,0-10.7,3.1-10.7,8c0,1.8,0.6,3.2,1.7,4.3
		c1.2,1.3,2.9,2.2,5.4,2.8l5.4,1.4c1.5,0.4,2.8,0.8,2.8,2.1c0,2-2.1,2.7-4.4,2.7c-1.1,0-2.3-0.2-3.2-0.7c-0.7-0.3-1.2-0.8-1.6-1.4
		c-0.4-0.5-0.5-0.9-1-1.3c-0.3-0.2-0.7-0.2-1.3-0.2h-2.9c-0.6,0-0.9,0.2-1.2,0.4c-0.2,0.3-0.3,0.6-0.3,1c0,0.9,0.3,2.1,1.1,3.2
		c1.8,2.4,5.6,4.4,10.4,4.4c4.7,0,11.3-2,11.3-8.3c0-1.6-0.5-3-1.3-4.2c-1.1-1.4-2.7-2.4-5.4-3.1l-5.4-1.4c-2.2-0.6-3.3-1-3.3-2.3
		c0-1.3,1.2-2.4,3.9-2.4c1.6,0,3.1,0.4,4,1.4c0.8,0.8,0.6,1.3,1.3,1.6c0.4,0.2,0.8,0.2,1.5,0.2h2.7c0.4,0,0.7-0.1,1-0.3
		c0.2-0.2,0.3-0.5,0.3-1.1c0-1.2-0.8-2.8-2.2-4C153,10.6,150,9.5,146.4,9.5 M161.1,10.4h-1.3c-0.5,0-0.9,0.1-1.2,0.4
		c-0.3,0.3-0.4,0.7-0.4,1.2v1.6c0,0.6,0.1,0.9,0.4,1.2c0.3,0.2,0.7,0.4,1.2,0.4h1.3V27c0,3,0.8,4.9,2.4,6.4c1.4,1.4,3.3,2.3,6.5,2.3
		h2c0.5,0,0.9-0.1,1.2-0.4c0.3-0.3,0.5-0.7,0.5-1.2v-2.1c0-0.6-0.2-0.9-0.5-1.2c-0.3-0.2-0.7-0.4-1.2-0.4h-0.3
		c-1.3,0-2.2-0.3-2.7-0.9c-0.7-0.7-1.1-1.7-1.1-3V15.2h4.3c0.5,0,0.9-0.1,1.2-0.4c0.3-0.3,0.5-0.7,0.5-1.2V12c0-0.6-0.1-0.9-0.5-1.2
		c-0.3-0.2-0.7-0.4-1.2-0.4h-4.3V2.7c0-0.6-0.2-1.1-0.5-1.4c-0.4-0.4-0.9-0.7-1.6-0.7h-2.7c-0.7,0-1.2,0.3-1.6,0.7
		c-0.3,0.4-0.5,0.8-0.5,1.4V10.4z M175.6,33.6c0,0.6,0.2,1.1,0.5,1.4c0.4,0.4,0.9,0.7,1.6,0.7h2.8c0.7,0,1.2-0.3,1.6-0.7
		c0.3-0.4,0.5-0.8,0.5-1.4v-31c0-0.6-0.2-1.1-0.5-1.4c-0.4-0.4-0.9-0.7-1.6-0.7h-2.8c-0.7,0-1.2,0.3-1.6,0.7
		c-0.3,0.4-0.5,0.8-0.5,1.4V33.6z M115.1,19.8c0.3-2.9,2.5-5.1,5.9-5.1c3.3,0,5.6,2.2,5.9,5.1H115.1z M208.2,5.8
		c0.5,0,0.9-0.1,1.2-0.4c0.3-0.3,0.4-0.7,0.4-1.2V2c0-0.9-0.2-1.3-0.4-1.6c-0.3-0.3-0.7-0.5-1.2-0.5c-0.4,0-0.8,0-1.4,0.1L187.9,2
		c-0.5,0-0.8,0.2-1,0.4c-0.2,0.2-0.3,0.5-0.3,1v1.2c0,0.5,0.1,0.7,0.3,0.9c0.2,0.2,0.5,0.4,0.9,0.4H208.2z M197.8,9.5
		c-8.2,0-12.8,6.4-12.8,13.2c0,7.2,4.9,13.6,12.9,13.6c4,0,7.8-1.5,10.1-4.1c1-1.1,1.8-2.7,1.8-3.7c0-0.3-0.1-0.6-0.3-0.8
		c-0.2-0.2-0.5-0.4-1-0.4h-3.8c-0.8,0-1.3,0.3-1.7,0.9c-1.1,1.6-2.7,2.5-5.1,2.5c-3.6,0-5.8-2.7-6-5.7h16.5c0.7,0,1.3-0.2,1.6-0.5
		c0.4-0.4,0.6-0.9,0.6-1.9c0-3.1-1-6.3-3-8.8C205.5,11.1,202.2,9.5,197.8,9.5 M191.9,19.8c0.3-2.9,2.5-5.1,5.9-5.1
		c3.3,0,5.6,2.2,5.9,5.1H191.9z"/>
	<path class="st3" d="M32.8,61.1H21.7c-0.2,0-0.3-0.1-0.4-0.2l-2.8-4.8l2.2-3.8l0.5-0.9c0-0.1,0.1-0.1,0.1-0.2c0-0.1,0-0.1-0.1-0.2
		l-2.3-4l-0.5-0.9v0l2.9-5c0.1-0.1,0.2-0.2,0.4-0.2h2.5l7.7,13.4l0.1,0.1c0,0,0.1,0.1,0.1,0.1c0.1,0,0.1,0.1,0.2,0.1h0h4.6l-3.7,6.4
		C33.1,61,33,61.1,32.8,61.1"/>
	<path class="st4" d="M61,35.8h-2.6l-7.6-13.2c-0.1-0.1-0.2-0.2-0.4-0.2h-4.6l3.8-6.5c0.1-0.1,0.2-0.2,0.4-0.2H61
		c0.2,0,0.3,0.1,0.4,0.2l5.6,9.6c0.1,0.1,0.1,0.3,0,0.5l-5.6,9.6C61.3,35.7,61.2,35.8,61,35.8"/>
	<path class="st3" d="M43.8,25.7l0,0.1L43.8,25.7 M43.8,25.7l0,0.1L43.8,25.7 M50.3,54.5H36.9l1.9-3.3l0-0.1c0-0.1,0-0.2,0-0.3l0,0
		l-2-3.4l-3.6-6.3c0-0.1-0.1-0.1-0.1-0.1c-0.1-0.1-0.2-0.1-0.3-0.1h-8.6l-1.3-2.2c-0.1-0.1-0.1-0.3,0-0.5l9-15.6
		c0.1-0.1,0.2-0.2,0.4-0.2h13.4l-1.8,3.1c0,0.1-0.1,0.2-0.1,0.2l0,0l0,0.1l0,0.1l5.6,9.6l0,0.1c0,0,0.1,0.1,0.1,0.1
		c0.1,0,0.1,0.1,0.2,0.1h8.5h0h0l1.4,2.4c0.1,0.1,0.1,0.3,0,0.5l-9,15.6C50.7,54.5,50.5,54.5,50.3,54.5"/>
	<path class="st5" d="M36.8,47.4l-3.6-6.3c0-0.1-0.1-0.1-0.1-0.1c0.1,0,0.1,0.1,0.1,0.1L36.8,47.4"/>
	<path class="st5" d="M36.9,54.5h-4.6H36.9z"/>
	<polygon class="st5" points="36.9,54.5 36.9,54.5 38.8,51.3 38.8,51.2 38.8,51.3 	"/>
	<path class="st6" d="M32.3,54.5L32.3,54.5c-0.1,0-0.1,0-0.2-0.1C32.2,54.5,32.2,54.5,32.3,54.5"/>
	<path class="st5" d="M32.1,54.5c-0.1,0-0.1-0.1-0.1-0.1C32,54.4,32,54.5,32.1,54.5"/>
	<path class="st3" d="M38.8,50.8L38.8,50.8L38.8,50.8z"/>
	<path class="st3" d="M38.8,50.8L38.8,50.8L38.8,50.8z"/>
	<path class="st7" d="M43.9,25.8l0-0.1L43.9,25.8z"/>
	<path class="st4" d="M43.9,25.8l0-0.1L43.9,25.8z"/>
	<path class="st5" d="M43.9,25.8l0-0.1L43.9,25.8z"/>
	<path class="st8" d="M49.6,35.8c-0.1,0-0.1-0.1-0.1-0.1C49.6,35.7,49.6,35.7,49.6,35.8"/>
	<path class="st3" d="M49.6,35.8c-0.1,0-0.1-0.1-0.1-0.1C49.6,35.7,49.6,35.7,49.6,35.8"/>
	<path class="st8" d="M58.4,35.8L58.4,35.8l-7.6-13.2c-0.1-0.1-0.2-0.2-0.4-0.2h-4.6l-1.8,3.1c0,0.1-0.1,0.2-0.1,0.2
		c0-0.1,0-0.2,0.1-0.2l1.8-3.1h4.6c0.2,0,0.3,0.1,0.4,0.2L58.4,35.8"/>
	<path class="st3" d="M58.4,35.8L58.4,35.8l-7.6-13.2c-0.1-0.1-0.2-0.2-0.4-0.2h-4.6l-1.8,3.1c0,0.1-0.1,0.2-0.1,0.2
		c0-0.1,0-0.2,0.1-0.2l1.8-3.1h4.6c0.2,0,0.3,0.1,0.4,0.2L58.4,35.8"/>
	<path class="st1" d="M24.2,40.9"/>
	<polygon class="st1" points="32,54.4 31.9,54.3 24.2,40.9 31.9,54.3 	"/>
	<path class="st1" d="M38.8,51.2c0-0.1,0-0.2,0-0.3C38.8,50.9,38.8,51,38.8,51.2"/>
	<path class="st1" d="M38.8,50.8l-2-3.4L38.8,50.8z"/>
	<path class="st1" d="M32.8,40.9c0.1,0,0.2,0,0.3,0.1C33,41,32.9,40.9,32.8,40.9h-8.6H32.8z"/>
	<path class="st1" d="M24.2,40.9l7.7,13.4l0.1,0.1c0.1,0.1,0.2,0.2,0.3,0.2h4.6l1.9-3.3l0-0.1c0-0.1,0-0.2,0-0.3l0,0l-2-3.4
		l-3.6-6.3c0-0.1-0.1-0.1-0.1-0.1c-0.1-0.1-0.2-0.1-0.3-0.1H24.2z"/>
	<polygon class="st0" points="43.9,26 43.9,25.8 43.9,26 49.5,35.6 49.5,35.7 49.5,35.6 	"/>
	<path class="st0" d="M49.6,35.8c0.1,0,0.1,0.1,0.2,0.1h8.5h0h-8.5C49.8,35.8,49.7,35.8,49.6,35.8"/>
	<path class="st0" d="M43.8,25.7L43.8,25.7L43.8,25.7z"/>
	<path class="st0" d="M43.9,25.8l0,0.1l5.6,9.6l0,0.1c0,0,0.1,0.1,0.1,0.1c0.1,0,0.1,0.1,0.2,0.1h8.5l-7.6-13.2
		c-0.1-0.1-0.2-0.2-0.4-0.2h-4.6l-1.8,3.1c0,0.1-0.1,0.2-0.1,0.2l0,0L43.9,25.8z"/>
	<path class="st3" d="M17.5,57.4h-6.7c-0.1,0-0.3-0.1-0.3-0.2L7,51.4C7,51.3,7,51.1,7,51l3.4-5.8c0.1-0.1,0.2-0.2,0.3-0.2h6.7
		c0.1,0,0.3,0.1,0.3,0.2l0.6,1l-1.2,2.1l-1.5,2.6c-0.1,0.1-0.1,0.3,0,0.4l0,0l0.9,1.5l-0.9-1.5l0,0l0,0l0.9,1.5l1.9,3.3l-0.7,1.1
		C17.8,57.4,17.6,57.4,17.5,57.4"/>
	<path class="st5" d="M21.3,51.2c0-0.1,0-0.1-0.1-0.2l-2.3-4l2.3,4C21.2,51.1,21.3,51.1,21.3,51.2"/>
	<polygon class="st5" points="18.5,56.1 18.5,56.1 16.6,52.8 18.5,56.1 20.7,52.3 	"/>
	<polygon class="st6" points="16.6,52.8 15.7,51.3 15.7,51.2 15.7,51.3 	"/>
	<path class="st5" d="M17.2,48.2l1.2-2.1L17.2,48.2z"/>
	<path class="st1" d="M20.7,52.3l0.5-0.9c0-0.1,0.1-0.1,0.1-0.2c0,0.1,0,0.1-0.1,0.2L20.7,52.3z"/>
	<polygon class="st1" points="18.4,46.1 18.4,46.1 18.9,47 	"/>
	<path class="st1" d="M15.7,50.8l1.5-2.6L15.7,50.8c-0.1,0.1-0.1,0.3,0,0.4C15.6,51.1,15.6,50.9,15.7,50.8"/>
	<path class="st1" d="M15.7,50.8c-0.1,0.1-0.1,0.3,0,0.4l0,0l2.8,4.8l2.2-3.8l0.5-0.9c0-0.1,0.1-0.1,0.1-0.2c0-0.1,0-0.1-0.1-0.2
		l-2.3-4l-0.5-0.9l-1.2,2.1L15.7,50.8z"/>
	<path class="st3" d="M8,43.3H3c-0.2,0-0.3-0.1-0.4-0.2l-2.5-4.4c-0.1-0.1-0.1-0.3,0-0.4l2.5-4.4c0.1-0.1,0.2-0.2,0.4-0.2H8
		c0.2,0,0.3,0.1,0.4,0.2l2.5,4.4c0.1,0.1,0.1,0.3,0,0.4l-2.5,4.4C8.3,43.2,8.2,43.3,8,43.3"/>
	<path class="st1" d="M223.8,57.2c0,1.2-0.4,2.2-1.3,3c-0.8,0.8-1.8,1.2-3,1.2c-1.2,0-2.2-0.4-3-1.3c-0.8-0.8-1.3-1.8-1.3-3
		c0-1.2,0.4-2.1,1.3-3c0.8-0.8,1.8-1.2,3-1.2c1.2,0,2.2,0.4,3,1.2C223.4,55,223.8,56,223.8,57.2 M223,57.2c0-0.9-0.3-1.7-1-2.4
		c-0.7-0.7-1.5-1-2.4-1c-0.9,0-1.8,0.3-2.4,1c-0.7,0.7-1,1.5-1,2.4c0,0.9,0.3,1.7,1,2.4c0.7,0.7,1.5,1,2.4,1c0.9,0,1.8-0.3,2.4-1
		C222.7,58.9,223,58.1,223,57.2 M221.4,59.4h-1c0-0.3-0.1-0.7-0.2-1.2c-0.1-0.5-0.3-0.7-0.6-0.7h-0.8v1.9h-0.9v-4.5h1.8
		c1,0,1.6,0.4,1.6,1.2c0,0.5-0.3,0.9-0.8,1.1c0.3,0.1,0.5,0.3,0.6,0.7c0,0.1,0.1,0.4,0.1,0.9C221.3,58.9,221.3,59.2,221.4,59.4
		 M220.3,56c0-0.4-0.3-0.6-0.9-0.6h-0.6v1.2h0.6C220,56.7,220.3,56.5,220.3,56"/>
	<path class="st1" d="M223.8,57.2c0,1.2-0.4,2.2-1.3,3c-0.8,0.8-1.8,1.2-3,1.2c-1.2,0-2.2-0.4-3-1.3c-0.8-0.8-1.3-1.8-1.3-3
		c0-1.2,0.4-2.1,1.3-3c0.8-0.8,1.8-1.2,3-1.2c1.2,0,2.2,0.4,3,1.2C223.4,55,223.8,56,223.8,57.2 M223,57.2c0-0.9-0.3-1.7-1-2.4
		c-0.7-0.7-1.5-1-2.4-1c-0.9,0-1.8,0.3-2.4,1c-0.7,0.7-1,1.5-1,2.4c0,0.9,0.3,1.7,1,2.4c0.7,0.7,1.5,1,2.4,1c0.9,0,1.8-0.3,2.4-1
		C222.7,58.9,223,58.1,223,57.2 M221.4,59.4h-1c0-0.3-0.1-0.7-0.2-1.2c-0.1-0.5-0.3-0.7-0.6-0.7h-0.8v1.9h-0.9v-4.5h1.8
		c1,0,1.6,0.4,1.6,1.2c0,0.5-0.3,0.9-0.8,1.1c0.3,0.1,0.5,0.3,0.6,0.7c0,0.1,0.1,0.4,0.1,0.9C221.3,58.9,221.3,59.2,221.4,59.4
		 M220.3,56c0-0.4-0.3-0.6-0.9-0.6h-0.6v1.2h0.6C220,56.7,220.3,56.5,220.3,56"/>
</g>
</svg>
