<?xml version="1.0" encoding="UTF-8"?>
<svg id="Layer_2" xmlns="http://www.w3.org/2000/svg" version="1.1" viewBox="0 0 414.1 115.3">
  <!-- Generator: Adobe Illustrator 29.1.0, SVG Export Plug-In . SVG Version: 2.1.0 Build 142)  -->
  <defs>
    <style>
      .st0 {
        fill: #4c1cb3;
      }

      .st1 {
        fill: #0d0b90;
      }

      .st2 {
        fill: #69f;
      }
    </style>
  </defs>
  <g id="Logos">
    <g>
      <path class="st1" d="M176.3,104.8c2.8-.2,4.1-2.3,4.1-4.5,0-3.3-2.8-4.9-6.7-4.9h-12.9v19.3h13.4c4.5,0,7.3-1.8,7.3-5.3s-2.2-4.4-5.2-4.6h0ZM163.1,97.5h10.2c2.8,0,4.7.7,4.7,3.2s-2,3.2-4.7,3.2h-10.2v-6.3ZM173.9,112.7h-10.7v-6.7h10.7c3.3,0,5.3,1,5.3,3.4s-2,3.4-5.3,3.4Z"/>
      <rect class="st1" x="186.4" y="95.4" width="2.3" height="19.3"/>
      <path class="st1" d="M205.5,94.8c-7.4,0-11.8,3.9-11.8,10.2s4.4,10.2,11.8,10.2,11.8-3.9,11.8-10.2-4.4-10.2-11.8-10.2ZM205.5,113.2c-5.7,0-9.4-2.9-9.4-8.1s3.7-8.1,9.4-8.1,9.4,2.9,9.4,8.1-3.7,8.1-9.4,8.1Z"/>
      <path class="st1" d="M231.4,103.7c-4.6-.4-8.2-.9-8.2-3.3s4-3.5,7.5-3.5c3.2,0,6.1,1,7.9,2.8l1.8-1.6c-2.2-2-5.7-3.4-9.9-3.4s-9.8,2.1-9.8,5.7,4.9,4.9,10.1,5.4c5.2.4,8.1,1,8.1,3.4s-2.7,3.9-7.4,3.9-7-1.1-9.8-3.6l-1.6,1.7c3,2.7,7.1,4,11.3,4,6.3,0,9.9-2.6,9.9-6.2s-4.1-4.9-10-5.4h0Z"/>
      <path class="st1" d="M256.2,97c3.4,0,6.1,1.1,7.6,3.7l2.2-1.1c-1.8-2.9-5.2-4.8-9.8-4.8-7.3,0-11.7,4-11.7,10.2s4.4,10.2,11.6,10.2,8.1-1.8,9.9-4.8l-2.2-1.1c-1.5,2.6-4.3,3.7-7.6,3.7-5.6,0-9.3-2.8-9.3-8.1s3.7-8.1,9.3-8.1h0Z"/>
      <rect class="st1" x="270.5" y="95.4" width="2.3" height="19.3"/>
      <polygon class="st1" points="281.6 106 295.2 106 295.2 103.8 281.6 103.8 281.6 97.6 297.7 97.6 297.7 95.4 279.3 95.4 279.3 114.8 298 114.8 298 112.6 281.6 112.6 281.6 106"/>
      <polygon class="st1" points="321 111.4 305.3 95.4 302.7 95.4 302.7 114.8 305 114.8 305 98.4 321.2 114.8 323.3 114.8 323.3 95.4 321 95.4 321 111.4"/>
      <path class="st1" d="M339.9,97c3.4,0,6.1,1.1,7.6,3.7l2.2-1.1c-1.8-2.9-5.2-4.8-9.8-4.8-7.3,0-11.7,4-11.7,10.2s4.4,10.2,11.6,10.2,8.1-1.8,9.9-4.8l-2.2-1.1c-1.5,2.6-4.3,3.7-7.6,3.7-5.6,0-9.3-2.8-9.3-8.1s3.7-8.1,9.3-8.1h0Z"/>
      <polygon class="st1" points="356.5 106 370.1 106 370.1 103.8 356.5 103.8 356.5 97.6 372.6 97.6 372.6 95.4 354.2 95.4 354.2 114.8 372.9 114.8 372.9 112.6 356.5 112.6 356.5 106"/>
      <path class="st1" d="M386.9,103.7c-4.6-.4-8.2-.9-8.2-3.3s4-3.5,7.5-3.5c3.2,0,6.1,1,8,2.8l1.8-1.6c-2.2-2-5.7-3.4-9.9-3.4s-9.8,2.1-9.8,5.7,4.9,4.9,10.1,5.4c5.2.4,8.1,1,8.1,3.4s-2.7,3.9-7.4,3.9-7-1.1-9.8-3.6l-1.6,1.7c3,2.7,7.1,4,11.3,4,6.3,0,9.9-2.6,9.9-6.2s-4.1-4.9-10-5.4h0Z"/>
      <path class="st1" d="M38,19.5c-13.2,0-22.7,5.5-29,13.8v-11.6H0v92.6h9v-44.2c5.5,7.7,15.7,13.8,29,13.8,20,0,32.6-12.9,32.6-32.3s-12.5-32.2-32.6-32.2h0ZM35.7,75.9c-11.1,0-20.5-6.7-26.6-17.4v-13.5c6.2-10.7,15.5-17.4,26.6-17.4,16.5,0,25.8,8.7,25.8,24.1s-9.2,24.2-25.8,24.2Z"/>
      <path class="st1" d="M198.8,84c17.4,0,26.9-6.5,32.6-15.3l-8.6-3.7c-4.5,8-14.8,10.9-23.9,10.9-16.5,0-28.4-8-28.4-24.2s11.9-24.3,28.4-24.3,19.1,2.7,23.7,10.6l8.4-4c-5.8-8-15.2-14.6-32.2-14.6s-37.8,12.7-37.8,32.4,14.1,32.3,37.8,32.3h0Z"/>
      <rect class="st2" x="248.6" y="21.7" width="9" height="15.6"/>
      <path class="st1" d="M285.6,46.7c4.5-12,16.2-16.7,29.8-16.7v-9c-13,0-25,5.3-29.8,15.5v-14.8h-9v60h9v-35Z"/>
      <path class="st2" d="M254,12.7c3.9-.6,6.4-3.9,5.9-7.3-.5-3.6-3.9-5.8-7.8-5.3-3.9.6-6.4,3.8-5.9,7.3.5,3.4,3.9,5.8,7.8,5.3h0Z"/>
      <path class="st1" d="M148.9,48.5c0-19-16.1-27.8-35.4-28.6-10.9-.5-18.6-.1-28.4,1.1v9c7.8-1.4,17.3-2.9,26.9-2.3,16.6,1.1,27.7,6.2,27.7,20.8v5c-4.7-6.6-17.1-11.6-30.1-11.6s-30.6,5.4-30.6,21.2,17.5,21.2,30.6,21.2,25.4-5.9,30.1-12.4v.2c0,3.4,2.1,7.2,4.2,9.6h9.1c-3.5-3.9-4-7.2-4-11.7v-21.6h0ZM139.9,64.8c-5.2,9.2-19.5,12-29.6,12s-22.5-2.5-22.5-13.8,13.7-13.8,22.5-13.8,24.4,2.2,29.6,11.5v4Z"/>
      <path class="st1" d="M392.9,48.5c0-19-16.1-27.8-35.4-28.6-10.9-.5-18.6-.1-28.5,1.1v9c7.8-1.4,17.4-2.9,26.9-2.3,16.5,1.1,27.7,6.2,27.7,20.8v5c-4.7-6.6-17.1-11.6-30.1-11.6s-30.6,5.4-30.6,21.2,17.5,21.2,30.6,21.2,25.4-5.9,30.1-12.4v.2c0,3.4,2.1,7.2,4.2,9.6h9.1c-3.5-3.9-4-7.2-4-11.7v-21.6h0ZM383.8,64.8c-5.2,9.2-19.5,12-29.6,12s-22.5-2.5-22.5-13.8,13.6-13.8,22.5-13.8,24.4,2.2,29.6,11.5v4Z"/>
      <g>
        <rect class="st1" x="248.6" y="66.1" width="9" height="15.6"/>
        <rect class="st0" x="248.6" y="42.7" width="9" height="18"/>
      </g>
      <path class="st1" d="M405.9,73.9h-2.5v4.8h-1.2v-4.8h-2.5v-1.1h6.2v1.1ZM414.1,72.8v5.9h-1.2v-4.2l-2.5,3.2h0l-2.5-3.2v4.2h-1.1v-5.9h1.2l2.5,3.3,2.5-3.3h1.2Z"/>
    </g>
  </g>
</svg>